PathFileType	4	(X/Y/Z)	/Users/visionmauri/Downloads/pro-gait-dataset/4_0_1_f_1_Sports2D/4_0_1_f_1_Sports2D_px_person00.trc
DataRate	CameraRate	NumFrames	NumMarkers	Units	OrigDataRate	OrigDataStartFrame	OrigNumFrames
30.0	30.0	7	22	m	30.0	408	654
Frame#	Time	Hip			RHip			RKnee			RAnkle			RBigToe			RSmallToe			RHeel			LHip			LKnee			LAnkle			LBigToe			LSmallToe			LHeel			Neck			Head			Nose			RShoulder			RElbow			RWrist			LShoulder			LElbow			LWrist			
		X1	Y1	Z1	X2	Y2	Z2	X3	Y3	Z3	X4	Y4	Z4	X5	Y5	Z5	X6	Y6	Z6	X7	Y7	Z7	X8	Y8	Z8	X9	Y9	Z9	X10	Y10	Z10	X11	Y11	Z11	X12	Y12	Z12	X13	Y13	Z13	X14	Y14	Z14	X15	Y15	Z15	X16	Y16	Z16	X17	Y17	Z17	X18	Y18	Z18	X19	Y19	Z19	X20	Y20	Z20	X21	Y21	Z21	X22	Y22	Z22
408	13.6208269525268	549.3271268869324	855.6428451617699	0.0	533.6712643857154	854.9790064480944	0.0	526.7968564690525	902.137106251652	0.0	529.6123846246422	949.1049437527726	0.0	525.4407157535358	973.8830975713373	0.0	519.3667791575801	971.3792091374366	0.0	534.6243899273984	955.1541793165002	0.0	563.6216942823567	857.0476570883666	0.0	566.1314220843076	911.8152413140132	0.0	564.5262471441974	968.989947321294	0.0	573.3068000098467	984.1965635240746	0.0	579.4595571949119	982.1636551656792	0.0	559.9119513331797	979.0784766815625	0.0	557.2808062507925	783.8881828383396	0.0	563.3120062283576	746.592248598143	0.0	561.1350522068666	772.3491585215381	0.0	533.7426019727999	787.1682705058489	0.0	511.709846275033	815.9497228605802	0.0	502.1235428494342	848.4058507500325	0.0	579.7065705702813	794.0940218002588	0.0	592.6642656437526	829.4969418364059	0.0	597.9487160981781	863.8616815027898	0.0
409	13.654211332312403	550.1594515572497	855.0393269063879	0.0	534.4277034806561	854.0686857093524	0.0	527.0592414872468	901.4096881940108	0.0	530.785068583501	949.0471402509161	0.0	527.1883439330846	974.02124831994	0.0	520.6800406998246	971.3760104348027	0.0	535.6694359398753	955.365050740644	0.0	564.5635680547073	856.4199565278094	0.0	566.7178229671804	911.843154116536	0.0	564.6344314043546	969.1182617136287	0.0	573.415966267053	984.255020398875	0.0	579.8246771772052	982.1210633760836	0.0	559.9419963093234	978.9052193818841	0.0	558.5709972662264	782.5601125889837	0.0	564.2201798571775	744.8806255934845	0.0	562.1380454200704	770.6157505181276	0.0	535.1582506687932	786.3053533641842	0.0	513.3575408340602	815.5316515331552	0.0	503.6514506070244	848.4441261913946	0.0	581.1688549527419	793.0762588278959	0.0	594.0991786248665	828.5925499741559	0.0	598.4503494456089	862.5938216368439	0.0
410	13.687595712098009	550.8308047483656	854.4455297622911	0.0	535.0707597257796	853.2425165102743	0.0	527.6325986938791	901.6216688330098	0.0	531.6882561695735	949.8386177475352	0.0	529.2655639379282	974.8840563140154	0.0	522.193836821758	972.0817089571495	0.0	536.3118566152285	956.4991105628341	0.0	565.3568405816844	855.6725979834032	0.0	567.1149992958509	912.1691858876985	0.0	564.7086151428505	969.0244346796818	0.0	573.3431005325284	984.2875362168012	0.0	579.8617382721292	982.1335592512486	0.0	559.9608668179012	978.7942683538813	0.0	559.7411329316017	781.0452312093972	0.0	565.1631253690182	743.281623610291	0.0	563.0477325908221	768.7561593658005	0.0	536.3517365337134	785.5577246177397	0.0	515.252264622883	815.4811730506577	0.0	505.22489946191575	848.4128130330986	0.0	582.4437736066571	791.951926387341	0.0	595.34705350025	827.544016663881	0.0	598.7421038370809	861.0543595729207	0.0
411	13.720980091883614	551.4649261612351	853.8738405179231	0.0	535.7911571936464	852.6543128482937	0.0	528.4277996761407	902.7761612713434	0.0	532.4138774410235	951.6133595021573	0.0	530.9507462264203	976.365648925342	0.0	523.6759299539256	973.7028314228106	0.0	536.7805236598449	958.7814183969149	0.0	565.9972171599463	854.9845540136962	0.0	567.3641741614755	912.5100077640994	0.0	564.7920829214905	968.7784585416216	0.0	573.2607736060141	984.1602449299512	0.0	579.736029153933	982.1906898099844	0.0	560.1989382935076	978.5695037672557	0.0	560.8408423113186	779.755219566806	0.0	566.2620275883781	742.391497125345	0.0	564.3166991517365	767.297403291823	0.0	537.2903987382037	784.787335630569	0.0	517.3356367364227	815.5590446763504	0.0	507.0038732114316	848.4025304938806	0.0	583.5182673996502	790.7818612978513	0.0	596.4531224890371	826.459176215923	0.0	598.6300764197724	859.6840717972049	0.0
412	13.754364471669218	552.147616042675	853.3751466457534	0.0	536.4937969536961	852.2250825436006	0.0	529.2916353649398	904.0462246802334	0.0	533.0980623515283	954.1654914190025	0.0	532.2697840934995	978.1779678801108	0.0	524.8757943176817	975.8139861778229	0.0	537.2056394528083	962.197169841822	0.0	566.6509850476914	854.573899001378	0.0	567.551661030676	912.8068452627991	0.0	564.8358150952785	968.5077955162598	0.0	573.1140045091687	983.9230283584131	0.0	579.6251868824803	982.261752130343	0.0	560.6706516913242	978.1662755900403	0.0	561.5992954760644	779.0850783171838	0.0	567.2701673911455	742.0073393749311	0.0	565.7069683222508	766.380703133736	0.0	537.8589863942308	784.1487134144073	0.0	519.066778961201	815.70551109091	0.0	508.66178479268	848.5411430357398	0.0	584.3652616539026	789.8566468401369	0.0	597.518630623041	825.5979195996294	0.0	598.2676004058468	858.6153564107387	0.0
413	13.787748851454824	552.8146232146111	853.0905726855325	0.0	537.0961116238914	851.8566555727346	0.0	530.1685429400139	904.6863403213478	0.0	533.7042002780677	956.9092276666665	0.0	533.4757277006203	979.8732836324028	0.0	525.7671037097072	977.7228921494262	0.0	537.5719382191206	966.0219503067786	0.0	567.3858240744805	854.4628100115864	0.0	567.7721937054869	913.1587881766843	0.0	564.712958666322	968.2964017661312	0.0	572.6662796427155	983.7478798443225	0.0	579.419014733871	982.2955174292218	0.0	561.1223884311185	977.7350267091147	0.0	561.9649616530932	778.9310006709998	0.0	567.9648157679534	741.5804923728396	0.0	566.7562384317137	765.7586135377397	0.0	538.0895230387458	783.7817947744778	0.0	520.1869536965291	815.8669929482088	0.0	509.98754912293475	848.8243789449423	0.0	584.9369045791681	789.304811557935	0.0	598.527047942626	825.1147092604963	0.0	597.8563027919996	857.8255188724794	0.0
414	13.82113323124043	553.395178697828	853.092036549872	0.0	537.6909196469186	851.6510125174676	0.0	531.2231890193785	904.8490952248944	0.0	534.1361512844654	959.1676018926037	0.0	534.3398249048383	980.9931518592014	0.0	526.2962435486091	979.0985487339484	0.0	537.889461400716	969.1322850637217	0.0	568.0614337448843	854.4464346918918	0.0	568.066095364257	913.457398222874	0.0	564.4331816250233	968.0904337110541	0.0	572.0672543357358	983.6625000588523	0.0	578.9532780143185	982.2213429453158	0.0	561.2657552753133	977.4555995980538	0.0	562.3149055031882	778.9632659311112	0.0	568.3707805998597	741.1524500569639	0.0	567.2962456851247	765.3923562675849	0.0	538.33391232014	783.5673156601275	0.0	520.9825840148792	815.8897211790676	0.0	511.1701032851655	849.1047753691927	0.0	585.283548458932	788.9682588945391	0.0	599.3656042862475	824.9139841887389	0.0	597.4385493605362	857.123842251576	0.0
